<mxfile host="65bd71144e" modified="2020-11-23T00:21:54.968Z" agent="5.0 (Macintosh; Intel Mac OS X 10_15_7) AppleWebKit/537.36 (KHTML, like Gecko) Code/1.51.1 Chrome/83.0.4103.122 Electron/9.3.3 Safari/537.36" version="13.6.5" etag="wcB6IKbsVQka5FvKNQV_" pages="10">
    <diagram id="f37dfb28-9df2-533c-9f25-c7bf63f22f82" name="00 - hoc">
        <mxGraphModel dx="799" dy="720" grid="1" gridSize="10" guides="1" tooltips="1" connect="1" arrows="1" fold="1" page="1" pageScale="1" pageWidth="3300" pageHeight="4681" background="#ffffff" math="0" shadow="0">
            <root>
                <mxCell id="0"/>
                <mxCell id="1" parent="0"/>
                <mxCell id="2" value="Higher Order Components" style="rounded=0;whiteSpace=wrap;html=1;strokeWidth=2;fontSize=20;fontColor=#000000;align=center;" parent="1" vertex="1">
                    <mxGeometry x="600" y="810" width="170" height="80" as="geometry"/>
                </mxCell>
                <mxCell id="3" value="A React component made to help us reuse code" style="text;html=1;strokeColor=none;fillColor=none;align=center;verticalAlign=middle;whiteSpace=wrap;rounded=0;fontSize=11;fontColor=#000000;fontStyle=2" parent="1" vertex="1">
                    <mxGeometry x="610" y="890" width="150" height="50" as="geometry"/>
                </mxCell>
            </root>
        </mxGraphModel>
    </diagram>
    <diagram id="b5086152-db90-2614-a6fe-87f7d8a082c0" name="01 - hoc">
        <mxGraphModel dx="799" dy="720" grid="1" gridSize="10" guides="1" tooltips="1" connect="1" arrows="1" fold="1" page="1" pageScale="1" pageWidth="3300" pageHeight="4681" background="#ffffff" math="0" shadow="0">
            <root>
                <mxCell id="0"/>
                <mxCell id="1" parent="0"/>
                <mxCell id="4" value="Component" style="rounded=0;whiteSpace=wrap;html=1;strokeColor=#000000;strokeWidth=2;fillColor=#ffffff;fontSize=22;fontColor=#000000;align=center;" parent="1" vertex="1">
                    <mxGeometry x="360" y="270" width="180" height="80" as="geometry"/>
                </mxCell>
                <mxCell id="5" value="Higher Order Component" style="rounded=0;whiteSpace=wrap;html=1;strokeColor=#000000;strokeWidth=2;fillColor=#ffffff;fontSize=22;fontColor=#000000;align=center;" parent="1" vertex="1">
                    <mxGeometry x="600" y="270" width="180" height="80" as="geometry"/>
                </mxCell>
                <mxCell id="6" value="+" style="text;html=1;strokeColor=none;fillColor=none;align=center;verticalAlign=middle;whiteSpace=wrap;rounded=0;fontSize=28;" parent="1" vertex="1">
                    <mxGeometry x="550" y="300" width="40" height="20" as="geometry"/>
                </mxCell>
                <mxCell id="7" value="=" style="text;html=1;strokeColor=none;fillColor=none;align=center;verticalAlign=middle;whiteSpace=wrap;rounded=0;fontSize=28;" parent="1" vertex="1">
                    <mxGeometry x="780" y="300" width="40" height="20" as="geometry"/>
                </mxCell>
                <mxCell id="8" value="Component" style="rounded=0;whiteSpace=wrap;html=1;strokeColor=#000000;strokeWidth=2;fillColor=#ffffff;fontSize=22;fontColor=#000000;align=center;" parent="1" vertex="1">
                    <mxGeometry x="830" y="270" width="180" height="80" as="geometry"/>
                </mxCell>
                <mxCell id="9" value="Additional functionality or data" style="rounded=0;whiteSpace=wrap;html=1;strokeColor=#000000;strokeWidth=2;fillColor=#ffffff;fontSize=17;fontColor=#000000;align=center;" parent="1" vertex="1">
                    <mxGeometry x="840" y="350" width="160" height="60" as="geometry"/>
                </mxCell>
                <mxCell id="10" value="'Enhanced' or 'Composed' Component" style="text;html=1;strokeColor=none;fillColor=none;align=center;verticalAlign=middle;whiteSpace=wrap;rounded=0;fontSize=17;fontStyle=2" parent="1" vertex="1">
                    <mxGeometry x="860" y="212" width="120" height="40" as="geometry"/>
                </mxCell>
                <mxCell id="11" value="React Component" style="text;html=1;strokeColor=none;fillColor=none;align=center;verticalAlign=middle;whiteSpace=wrap;rounded=0;fontSize=13;fontStyle=2" parent="1" vertex="1">
                    <mxGeometry x="630" y="351" width="120" height="19" as="geometry"/>
                </mxCell>
                <mxCell id="12" value="React Component" style="text;html=1;strokeColor=none;fillColor=none;align=center;verticalAlign=middle;whiteSpace=wrap;rounded=0;fontSize=13;fontStyle=2" parent="1" vertex="1">
                    <mxGeometry x="390" y="351" width="120" height="19" as="geometry"/>
                </mxCell>
            </root>
        </mxGraphModel>
    </diagram>
    <diagram id="69c8c149-6ec0-e968-21c6-b34197d38d23" name="02 - connect">
        <mxGraphModel dx="990" dy="431" grid="1" gridSize="10" guides="1" tooltips="1" connect="1" arrows="1" fold="1" page="1" pageScale="1" pageWidth="3300" pageHeight="4681" background="#ffffff" math="0" shadow="0">
            <root>
                <mxCell id="0"/>
                <mxCell id="1" parent="0"/>
                <mxCell id="2" style="edgeStyle=orthogonalEdgeStyle;rounded=0;html=1;exitX=0.5;exitY=1;jettySize=auto;orthogonalLoop=1;strokeColor=#000000;strokeWidth=3;fontSize=18;fontColor=#000000;" edge="1" source="3" target="6" parent="1">
                    <mxGeometry relative="1" as="geometry"/>
                </mxCell>
                <mxCell id="3" value="Provider&lt;br&gt;&lt;br&gt;&lt;br&gt;&lt;br&gt;" style="rounded=0;whiteSpace=wrap;html=1;strokeColor=#6c8ebf;strokeWidth=2;fillColor=#dae8fc;fontSize=18;fontColor=#000000;align=center;" vertex="1" parent="1">
                    <mxGeometry x="540" y="90" width="210" height="90" as="geometry"/>
                </mxCell>
                <mxCell id="4" style="edgeStyle=orthogonalEdgeStyle;rounded=0;html=1;exitX=0.25;exitY=1;entryX=0.5;entryY=0;jettySize=auto;orthogonalLoop=1;strokeColor=#000000;strokeWidth=3;fontSize=18;fontColor=#000000;" edge="1" source="6" target="13" parent="1">
                    <mxGeometry relative="1" as="geometry"/>
                </mxCell>
                <mxCell id="5" style="edgeStyle=orthogonalEdgeStyle;rounded=0;html=1;exitX=0.75;exitY=1;entryX=0.5;entryY=0;jettySize=auto;orthogonalLoop=1;strokeColor=#000000;strokeWidth=3;fontSize=18;fontColor=#000000;" edge="1" source="6" target="11" parent="1">
                    <mxGeometry relative="1" as="geometry"/>
                </mxCell>
                <mxCell id="6" value="App" style="rounded=0;whiteSpace=wrap;html=1;strokeColor=#000000;strokeWidth=2;fillColor=#ffffff;fontSize=18;fontColor=#000000;align=center;" vertex="1" parent="1">
                    <mxGeometry x="540" y="230" width="210" height="60" as="geometry"/>
                </mxCell>
                <mxCell id="7" value="CommentsList" style="rounded=0;whiteSpace=wrap;html=1;strokeColor=#000000;strokeWidth=2;fillColor=#ffffff;fontSize=18;fontColor=#000000;align=center;" vertex="1" parent="1">
                    <mxGeometry x="680" y="400" width="210" height="60" as="geometry"/>
                </mxCell>
                <mxCell id="8" value="CommentBox" style="rounded=0;whiteSpace=wrap;html=1;strokeColor=#000000;strokeWidth=2;fillColor=#ffffff;fontSize=18;fontColor=#000000;align=center;" vertex="1" parent="1">
                    <mxGeometry x="400" y="400" width="210" height="60" as="geometry"/>
                </mxCell>
                <mxCell id="9" value="Redux Store" style="rounded=0;whiteSpace=wrap;html=1;strokeColor=#000000;strokeWidth=2;fillColor=#ffffff;fontSize=18;fontColor=#000000;align=center;" vertex="1" parent="1">
                    <mxGeometry x="575" y="130" width="140" height="40" as="geometry"/>
                </mxCell>
                <mxCell id="11" value="connect" style="rounded=0;whiteSpace=wrap;html=1;strokeColor=#000000;strokeWidth=2;fillColor=#ffffff;fontSize=18;fontColor=#000000;align=center;" vertex="1" parent="1">
                    <mxGeometry x="715" y="360" width="140" height="40" as="geometry"/>
                </mxCell>
                <mxCell id="13" value="connect" style="rounded=0;whiteSpace=wrap;html=1;strokeColor=#000000;strokeWidth=2;fillColor=#ffffff;fontSize=18;fontColor=#000000;align=center;" vertex="1" parent="1">
                    <mxGeometry x="435" y="360" width="140" height="40" as="geometry"/>
                </mxCell>
            </root>
        </mxGraphModel>
    </diagram>
    <diagram id="7e0ecf74-03ba-5f3f-e5f9-ebf801b2ad3e" name="03 - mockup">
        <mxGraphModel dx="990" dy="431" grid="1" gridSize="10" guides="1" tooltips="1" connect="1" arrows="1" fold="1" page="1" pageScale="1" pageWidth="3300" pageHeight="4681" background="#ffffff" math="0" shadow="0">
            <root>
                <mxCell id="0"/>
                <mxCell id="1" parent="0"/>
                <mxCell id="2" value="" style="strokeWidth=1;shadow=0;dashed=0;align=center;html=1;shape=mxgraph.mockup.containers.browserWindow;rSize=0;fillColor=#ffffff;strokeColor=#666666;mainText=,;recursiveResize=0;fontSize=18;fontColor=#000000;" vertex="1" parent="1">
                    <mxGeometry x="481" y="90" width="640" height="430" as="geometry"/>
                </mxCell>
                <mxCell id="3" value="Page 1" style="strokeWidth=1;shadow=0;dashed=0;align=center;html=1;shape=mxgraph.mockup.containers.anchor;fontSize=17;fontColor=#666666;align=left;" vertex="1" parent="2">
                    <mxGeometry x="60" y="12" width="110" height="26" as="geometry"/>
                </mxCell>
                <mxCell id="4" value="https://localhost:3000" style="strokeWidth=1;shadow=0;dashed=0;align=center;html=1;shape=mxgraph.mockup.containers.anchor;rSize=0;fontSize=17;fontColor=#666666;align=left;" vertex="1" parent="2">
                    <mxGeometry x="130" y="60" width="250" height="26" as="geometry"/>
                </mxCell>
                <mxCell id="9" value="I am a test comment!" style="rounded=0;whiteSpace=wrap;html=1;strokeColor=#000000;strokeWidth=2;fillColor=#ffffff;fontSize=15;fontColor=#000000;align=left;" vertex="1" parent="2">
                    <mxGeometry x="20" y="189" width="340" height="25" as="geometry"/>
                </mxCell>
                <mxCell id="10" value="Here's another test comment." style="rounded=0;whiteSpace=wrap;html=1;strokeColor=#000000;strokeWidth=2;fillColor=#ffffff;fontSize=15;fontColor=#000000;align=left;" vertex="1" parent="2">
                    <mxGeometry x="20" y="226.5" width="340" height="25" as="geometry"/>
                </mxCell>
                <mxCell id="11" value="And yet another comment for testing." style="rounded=0;whiteSpace=wrap;html=1;strokeColor=#000000;strokeWidth=2;fillColor=#ffffff;fontSize=15;fontColor=#000000;align=left;" vertex="1" parent="2">
                    <mxGeometry x="20" y="264" width="340" height="25" as="geometry"/>
                </mxCell>
                <mxCell id="14" value="Home" style="text;html=1;strokeColor=none;fillColor=none;align=center;verticalAlign=middle;whiteSpace=wrap;rounded=0;fontSize=15;fontStyle=4;fontColor=#0000CC;" vertex="1" parent="2">
                    <mxGeometry x="26" y="120" width="40" height="20" as="geometry"/>
                </mxCell>
                <mxCell id="15" value="Post" style="text;html=1;strokeColor=none;fillColor=none;align=center;verticalAlign=middle;whiteSpace=wrap;rounded=0;fontSize=15;fontStyle=4;fontColor=#0000CC;" vertex="1" parent="2">
                    <mxGeometry x="76" y="120" width="40" height="20" as="geometry"/>
                </mxCell>
                <mxCell id="17" value="Sign In" style="rounded=0;whiteSpace=wrap;html=1;strokeWidth=2;fontSize=15;fontColor=#000000;" vertex="1" parent="2">
                    <mxGeometry x="130" y="115" width="67" height="35" as="geometry"/>
                </mxCell>
                <mxCell id="19" value="Comment List" style="text;html=1;strokeColor=none;fillColor=none;align=left;verticalAlign=middle;whiteSpace=wrap;rounded=0;fontSize=18;fontColor=#000000;" vertex="1" parent="2">
                    <mxGeometry x="20" y="161" width="180" height="20" as="geometry"/>
                </mxCell>
            </root>
        </mxGraphModel>
    </diagram>
    <diagram name="04 - mockup" id="38f591c7-1ab6-5cd0-7277-89fd0e671c3e">
        <mxGraphModel dx="990" dy="431" grid="1" gridSize="10" guides="1" tooltips="1" connect="1" arrows="1" fold="1" page="1" pageScale="1" pageWidth="3300" pageHeight="4681" background="#ffffff" math="0" shadow="0">
            <root>
                <mxCell id="0"/>
                <mxCell id="1" parent="0"/>
                <mxCell id="2" value="" style="strokeWidth=1;shadow=0;dashed=0;align=center;html=1;shape=mxgraph.mockup.containers.browserWindow;rSize=0;fillColor=#ffffff;strokeColor=#666666;mainText=,;recursiveResize=0;fontSize=18;fontColor=#000000;" vertex="1" parent="1">
                    <mxGeometry x="481" y="90" width="640" height="430" as="geometry"/>
                </mxCell>
                <mxCell id="3" value="Page 1" style="strokeWidth=1;shadow=0;dashed=0;align=center;html=1;shape=mxgraph.mockup.containers.anchor;fontSize=17;fontColor=#666666;align=left;" vertex="1" parent="2">
                    <mxGeometry x="60" y="12" width="110" height="26" as="geometry"/>
                </mxCell>
                <mxCell id="4" value="https://localhost:3000/post" style="strokeWidth=1;shadow=0;dashed=0;align=center;html=1;shape=mxgraph.mockup.containers.anchor;rSize=0;fontSize=17;fontColor=#666666;align=left;" vertex="1" parent="2">
                    <mxGeometry x="130" y="60" width="250" height="26" as="geometry"/>
                </mxCell>
                <mxCell id="5" value="Submit" style="rounded=0;whiteSpace=wrap;html=1;strokeColor=#000000;strokeWidth=2;fillColor=#ffffff;fontSize=18;fontColor=#000000;align=center;" vertex="1" parent="2">
                    <mxGeometry x="21" y="259" width="90" height="20" as="geometry"/>
                </mxCell>
                <mxCell id="6" value="" style="rounded=0;whiteSpace=wrap;html=1;strokeColor=#000000;strokeWidth=2;fillColor=#ffffff;fontSize=18;fontColor=#000000;align=center;" vertex="1" parent="2">
                    <mxGeometry x="21" y="189" width="160" height="56" as="geometry"/>
                </mxCell>
                <mxCell id="7" value="&lt;h1 style=&quot;font-size: 12px;&quot;&gt;Here is my comment&lt;/h1&gt;" style="text;html=1;strokeColor=none;fillColor=none;spacing=5;spacingTop=-20;whiteSpace=wrap;overflow=hidden;rounded=0;fontSize=12;fontColor=#000000;align=left;" vertex="1" parent="2">
                    <mxGeometry x="20" y="195" width="191" height="40" as="geometry"/>
                </mxCell>
                <mxCell id="8" value="Enter a Comment" style="text;html=1;strokeColor=none;fillColor=none;align=left;verticalAlign=middle;whiteSpace=wrap;rounded=0;fontSize=18;fontColor=#000000;" vertex="1" parent="2">
                    <mxGeometry x="21" y="162" width="180" height="20" as="geometry"/>
                </mxCell>
                <mxCell id="12" value="Fetch Comments" style="rounded=0;whiteSpace=wrap;html=1;strokeColor=#000000;strokeWidth=2;fillColor=#ffffff;fontSize=18;fontColor=#000000;align=center;" vertex="1" parent="2">
                    <mxGeometry x="116" y="259" width="155" height="20" as="geometry"/>
                </mxCell>
                <mxCell id="13" value="Home" style="text;html=1;strokeColor=none;fillColor=none;align=center;verticalAlign=middle;whiteSpace=wrap;rounded=0;fontSize=15;fontStyle=4;fontColor=#0000CC;" vertex="1" parent="2">
                    <mxGeometry x="26" y="120" width="40" height="20" as="geometry"/>
                </mxCell>
                <mxCell id="14" value="Post" style="text;html=1;strokeColor=none;fillColor=none;align=center;verticalAlign=middle;whiteSpace=wrap;rounded=0;fontSize=15;fontStyle=4;fontColor=#0000CC;" vertex="1" parent="2">
                    <mxGeometry x="76" y="120" width="40" height="20" as="geometry"/>
                </mxCell>
                <mxCell id="15" value="Sign Out" style="rounded=0;whiteSpace=wrap;html=1;strokeWidth=2;fontSize=15;fontColor=#000000;" vertex="1" parent="2">
                    <mxGeometry x="130" y="115" width="67" height="30" as="geometry"/>
                </mxCell>
            </root>
        </mxGraphModel>
    </diagram>
    <diagram id="f2b4d97d-e34d-096f-7255-07e404f364fa" name="05 - auth hoc">
        <mxGraphModel dx="825" dy="359" grid="1" gridSize="10" guides="1" tooltips="1" connect="1" arrows="1" fold="1" page="1" pageScale="1" pageWidth="3300" pageHeight="4681" background="#ffffff" math="0" shadow="0">
            <root>
                <mxCell id="0"/>
                <mxCell id="1" parent="0"/>
                <mxCell id="6" style="edgeStyle=orthogonalEdgeStyle;rounded=0;html=1;exitX=0.5;exitY=1;jettySize=auto;orthogonalLoop=1;strokeColor=#000000;strokeWidth=3;fontSize=15;fontColor=#000000;" edge="1" parent="1" source="2" target="3">
                    <mxGeometry relative="1" as="geometry"/>
                </mxCell>
                <mxCell id="2" value="User tries to visit the '/post' route" style="rounded=0;whiteSpace=wrap;html=1;strokeWidth=2;fontSize=15;fontColor=#000000;" vertex="1" parent="1">
                    <mxGeometry x="515" y="140" width="170" height="60" as="geometry"/>
                </mxCell>
                <mxCell id="9" style="edgeStyle=orthogonalEdgeStyle;rounded=0;html=1;exitX=0.25;exitY=1;entryX=0.75;entryY=0;jettySize=auto;orthogonalLoop=1;strokeColor=#000000;strokeWidth=3;fontSize=15;fontColor=#000000;" edge="1" parent="1" source="3" target="7">
                    <mxGeometry relative="1" as="geometry"/>
                </mxCell>
                <mxCell id="11" style="edgeStyle=orthogonalEdgeStyle;rounded=0;html=1;exitX=0.75;exitY=1;entryX=0.25;entryY=0;jettySize=auto;orthogonalLoop=1;strokeColor=#000000;strokeWidth=3;fontSize=15;fontColor=#000000;" edge="1" parent="1" source="3" target="8">
                    <mxGeometry relative="1" as="geometry"/>
                </mxCell>
                <mxCell id="3" value="Is the user logged in?" style="rounded=0;whiteSpace=wrap;html=1;strokeWidth=2;fontSize=15;fontColor=#000000;" vertex="1" parent="1">
                    <mxGeometry x="510" y="230" width="180" height="60" as="geometry"/>
                </mxCell>
                <mxCell id="13" style="edgeStyle=orthogonalEdgeStyle;rounded=0;html=1;exitX=0.5;exitY=1;entryX=0.5;entryY=0;jettySize=auto;orthogonalLoop=1;strokeColor=#000000;strokeWidth=3;fontSize=15;fontColor=#000000;" edge="1" parent="1" source="7" target="12">
                    <mxGeometry relative="1" as="geometry"/>
                </mxCell>
                <mxCell id="7" value="Yes" style="rounded=0;whiteSpace=wrap;html=1;strokeWidth=2;fontSize=15;fontColor=#000000;fillColor=#d5e8d4;strokeColor=#82b366;" vertex="1" parent="1">
                    <mxGeometry x="465" y="345" width="90" height="35" as="geometry"/>
                </mxCell>
                <mxCell id="15" style="edgeStyle=orthogonalEdgeStyle;rounded=0;html=1;exitX=0.5;exitY=1;jettySize=auto;orthogonalLoop=1;strokeColor=#000000;strokeWidth=3;fontSize=15;fontColor=#000000;" edge="1" parent="1" source="8" target="14">
                    <mxGeometry relative="1" as="geometry"/>
                </mxCell>
                <mxCell id="8" value="No" style="rounded=0;whiteSpace=wrap;html=1;strokeWidth=2;fontSize=15;fontColor=#000000;fillColor=#fff2cc;strokeColor=#d6b656;" vertex="1" parent="1">
                    <mxGeometry x="645" y="345" width="90" height="35" as="geometry"/>
                </mxCell>
                <mxCell id="12" value="Allow the user access" style="rounded=0;whiteSpace=wrap;html=1;strokeWidth=2;fontSize=15;fontColor=#000000;" vertex="1" parent="1">
                    <mxGeometry x="450" y="420" width="120" height="60" as="geometry"/>
                </mxCell>
                <mxCell id="14" value="Redirect the user back to the home page" style="rounded=0;whiteSpace=wrap;html=1;strokeWidth=2;fontSize=15;fontColor=#000000;" vertex="1" parent="1">
                    <mxGeometry x="630" y="420" width="120" height="60" as="geometry"/>
                </mxCell>
            </root>
        </mxGraphModel>
    </diagram>
    <diagram id="4a215ecc-92b3-8a4d-7101-66f02793f3c5" name="06 - components">
        <mxGraphModel dx="619" dy="270" grid="1" gridSize="10" guides="1" tooltips="1" connect="1" arrows="1" fold="1" page="1" pageScale="1" pageWidth="3300" pageHeight="4681" background="#ffffff" math="0" shadow="0">
            <root>
                <mxCell id="0"/>
                <mxCell id="1" parent="0"/>
                <mxCell id="5" style="edgeStyle=orthogonalEdgeStyle;rounded=0;html=1;exitX=0.25;exitY=1;jettySize=auto;orthogonalLoop=1;strokeColor=#000000;strokeWidth=3;fontSize=15;fontColor=#000000;" edge="1" parent="1" source="2" target="3">
                    <mxGeometry relative="1" as="geometry"/>
                </mxCell>
                <mxCell id="7" style="edgeStyle=orthogonalEdgeStyle;rounded=0;html=1;exitX=0.75;exitY=1;entryX=0.5;entryY=0;jettySize=auto;orthogonalLoop=1;strokeColor=#000000;strokeWidth=3;fontSize=15;fontColor=#000000;" edge="1" parent="1" source="2" target="6">
                    <mxGeometry relative="1" as="geometry"/>
                </mxCell>
                <mxCell id="2" value="App" style="rounded=0;whiteSpace=wrap;html=1;strokeWidth=2;fontSize=15;fontColor=#000000;" vertex="1" parent="1">
                    <mxGeometry x="640" y="120" width="120" height="60" as="geometry"/>
                </mxCell>
                <mxCell id="3" value="CommentList" style="rounded=0;whiteSpace=wrap;html=1;strokeWidth=2;fontSize=15;fontColor=#000000;" vertex="1" parent="1">
                    <mxGeometry x="560" y="270" width="120" height="60" as="geometry"/>
                </mxCell>
                <mxCell id="4" value="CommentBox" style="rounded=0;whiteSpace=wrap;html=1;strokeWidth=2;fontSize=15;fontColor=#000000;" vertex="1" parent="1">
                    <mxGeometry x="720" y="270" width="120" height="60" as="geometry"/>
                </mxCell>
                <mxCell id="6" value="requireAuth HOC" style="rounded=0;whiteSpace=wrap;html=1;strokeWidth=2;fontSize=15;fontColor=#000000;fillColor=#d5e8d4;strokeColor=#82b366;" vertex="1" parent="1">
                    <mxGeometry x="730" y="230" width="100" height="40" as="geometry"/>
                </mxCell>
                <mxCell id="8" value="" style="shape=curlyBracket;whiteSpace=wrap;html=1;rounded=1;strokeWidth=2;fontSize=15;fontColor=#000000;rotation=180;" vertex="1" parent="1">
                    <mxGeometry x="844" y="230" width="20" height="40" as="geometry"/>
                </mxCell>
                <mxCell id="9" value="&lt;i&gt;Verifies auth status, redirects if necessary&lt;/i&gt;" style="text;html=1;strokeColor=none;fillColor=none;align=left;verticalAlign=middle;whiteSpace=wrap;rounded=0;fontSize=15;fontColor=#000000;" vertex="1" parent="1">
                    <mxGeometry x="870" y="240" width="110" height="20" as="geometry"/>
                </mxCell>
            </root>
        </mxGraphModel>
    </diagram>
    <diagram name="07 - reason" id="fec182ae-e80a-0e85-b6f8-bd074d4943fd">
        <mxGraphModel dx="825" dy="359" grid="1" gridSize="10" guides="1" tooltips="1" connect="1" arrows="1" fold="1" page="1" pageScale="1" pageWidth="3300" pageHeight="4681" background="#ffffff" math="0" shadow="0">
            <root>
                <mxCell id="0"/>
                <mxCell id="1" parent="0"/>
                <mxCell id="17" style="edgeStyle=orthogonalEdgeStyle;rounded=0;html=1;exitX=0.5;exitY=1;entryX=0.5;entryY=0;jettySize=auto;orthogonalLoop=1;strokeColor=#000000;strokeWidth=3;fontSize=15;fontColor=#000000;" edge="1" parent="1" source="4" target="7">
                    <mxGeometry relative="1" as="geometry"/>
                </mxCell>
                <mxCell id="18" style="edgeStyle=orthogonalEdgeStyle;rounded=0;html=1;exitX=0.5;exitY=1;jettySize=auto;orthogonalLoop=1;strokeColor=#000000;strokeWidth=3;fontSize=15;fontColor=#000000;" edge="1" parent="1" source="4" target="5">
                    <mxGeometry relative="1" as="geometry">
                        <Array as="points">
                            <mxPoint x="840" y="200"/>
                            <mxPoint x="620" y="200"/>
                        </Array>
                    </mxGeometry>
                </mxCell>
                <mxCell id="19" style="edgeStyle=orthogonalEdgeStyle;rounded=0;html=1;exitX=0.5;exitY=1;jettySize=auto;orthogonalLoop=1;strokeColor=#000000;strokeWidth=3;fontSize=15;fontColor=#000000;" edge="1" parent="1" source="4" target="11">
                    <mxGeometry relative="1" as="geometry"/>
                </mxCell>
                <mxCell id="20" style="edgeStyle=orthogonalEdgeStyle;rounded=0;html=1;exitX=0.5;exitY=1;jettySize=auto;orthogonalLoop=1;strokeColor=#000000;strokeWidth=3;fontSize=15;fontColor=#000000;" edge="1" parent="1" source="4" target="13">
                    <mxGeometry relative="1" as="geometry"/>
                </mxCell>
                <mxCell id="4" value="App" style="rounded=0;whiteSpace=wrap;html=1;strokeWidth=2;fontSize=15;fontColor=#000000;" vertex="1" parent="1">
                    <mxGeometry x="780" y="110" width="120" height="60" as="geometry"/>
                </mxCell>
                <mxCell id="5" value="CommentList" style="rounded=0;whiteSpace=wrap;html=1;strokeWidth=2;fontSize=15;fontColor=#000000;" vertex="1" parent="1">
                    <mxGeometry x="560" y="270" width="120" height="60" as="geometry"/>
                </mxCell>
                <mxCell id="6" value="CommentBox" style="rounded=0;whiteSpace=wrap;html=1;strokeWidth=2;fontSize=15;fontColor=#000000;" vertex="1" parent="1">
                    <mxGeometry x="720" y="270" width="120" height="60" as="geometry"/>
                </mxCell>
                <mxCell id="7" value="requireAuth HOC" style="rounded=0;whiteSpace=wrap;html=1;strokeWidth=2;fontSize=15;fontColor=#000000;fillColor=#d5e8d4;strokeColor=#82b366;" vertex="1" parent="1">
                    <mxGeometry x="730" y="230" width="100" height="40" as="geometry"/>
                </mxCell>
                <mxCell id="10" value="CommentEdit" style="rounded=0;whiteSpace=wrap;html=1;strokeWidth=2;fontSize=15;fontColor=#000000;fontStyle=2;fillColor=#f5f5f5;strokeColor=#666666;" vertex="1" parent="1">
                    <mxGeometry x="860" y="270" width="120" height="60" as="geometry"/>
                </mxCell>
                <mxCell id="11" value="requireAuth HOC" style="rounded=0;whiteSpace=wrap;html=1;strokeWidth=2;fontSize=15;fontColor=#000000;fillColor=#d5e8d4;strokeColor=#82b366;" vertex="1" parent="1">
                    <mxGeometry x="870" y="230" width="100" height="40" as="geometry"/>
                </mxCell>
                <mxCell id="12" value="ProfileShow" style="rounded=0;whiteSpace=wrap;html=1;strokeWidth=2;fontSize=15;fontColor=#000000;fontStyle=2;fillColor=#f5f5f5;strokeColor=#666666;" vertex="1" parent="1">
                    <mxGeometry x="1000" y="270" width="120" height="60" as="geometry"/>
                </mxCell>
                <mxCell id="13" value="requireAuth HOC" style="rounded=0;whiteSpace=wrap;html=1;strokeWidth=2;fontSize=15;fontColor=#000000;fillColor=#d5e8d4;strokeColor=#82b366;" vertex="1" parent="1">
                    <mxGeometry x="1010" y="230" width="100" height="40" as="geometry"/>
                </mxCell>
            </root>
        </mxGraphModel>
    </diagram>
    <diagram id="22f9b830-8294-19c6-a8be-25a54c9a9117" name="09 - hoc">
        <mxGraphModel dx="825" dy="359" grid="1" gridSize="10" guides="1" tooltips="1" connect="1" arrows="1" fold="1" page="1" pageScale="1" pageWidth="3300" pageHeight="4681" background="#ffffff" math="0" shadow="0">
            <root>
                <mxCell id="0"/>
                <mxCell id="1" parent="0"/>
                <mxCell id="2" value="Write the logic you want to reuse into a component" style="rounded=0;whiteSpace=wrap;html=1;strokeWidth=2;fontSize=18;fontColor=#000000;align=center;" vertex="1" parent="1">
                    <mxGeometry x="590" y="130" width="260" height="60" as="geometry"/>
                </mxCell>
                <mxCell id="3" value="" style="endArrow=classic;html=1;strokeColor=#000000;strokeWidth=3;fontSize=11;fontColor=#000000;" edge="1" parent="1">
                    <mxGeometry width="50" height="50" relative="1" as="geometry">
                        <mxPoint x="580" y="130" as="sourcePoint"/>
                        <mxPoint x="580" y="410" as="targetPoint"/>
                    </mxGeometry>
                </mxCell>
                <mxCell id="4" value="Create a HOC file and add the HOC scaffold" style="rounded=0;whiteSpace=wrap;html=1;strokeWidth=2;fontSize=18;fontColor=#000000;align=center;" vertex="1" parent="1">
                    <mxGeometry x="590" y="200" width="260" height="60" as="geometry"/>
                </mxCell>
                <mxCell id="6" value="Move the reusable logic into the HOC" style="rounded=0;whiteSpace=wrap;html=1;strokeWidth=2;fontSize=18;fontColor=#000000;align=center;" vertex="1" parent="1">
                    <mxGeometry x="590" y="270" width="260" height="60" as="geometry"/>
                </mxCell>
                <mxCell id="7" value="Pass props/config/behavior through to child component" style="rounded=0;whiteSpace=wrap;html=1;strokeWidth=2;fontSize=18;fontColor=#000000;align=center;" vertex="1" parent="1">
                    <mxGeometry x="590" y="340" width="260" height="60" as="geometry"/>
                </mxCell>
                <mxCell id="10" value="Steps" style="text;html=1;strokeColor=none;fillColor=none;align=center;verticalAlign=middle;whiteSpace=wrap;rounded=0;fontSize=18;fontColor=#000000;" vertex="1" parent="1">
                    <mxGeometry x="530" y="130" width="40" height="20" as="geometry"/>
                </mxCell>
            </root>
        </mxGraphModel>
    </diagram>
    <diagram id="ea0f68fc-b61a-2b76-fb79-5a2393793068" name="10 - hierarchy">
        <mxGraphModel dx="990" dy="431" grid="1" gridSize="10" guides="1" tooltips="1" connect="1" arrows="1" fold="1" page="1" pageScale="1" pageWidth="3300" pageHeight="4681" background="#ffffff" math="0" shadow="0">
            <root>
                <mxCell id="0"/>
                <mxCell id="1" parent="0"/>
                <mxCell id="4" style="edgeStyle=orthogonalEdgeStyle;rounded=0;html=1;exitX=0.5;exitY=1;jettySize=auto;orthogonalLoop=1;strokeColor=#000000;strokeWidth=3;fontSize=18;fontColor=#000000;" edge="1" parent="1" source="2" target="3">
                    <mxGeometry relative="1" as="geometry"/>
                </mxCell>
                <mxCell id="2" value="App" style="rounded=0;whiteSpace=wrap;html=1;strokeWidth=2;fontSize=18;fontColor=#000000;align=center;" vertex="1" parent="1">
                    <mxGeometry x="570" y="160" width="120" height="60" as="geometry"/>
                </mxCell>
                <mxCell id="6" style="edgeStyle=orthogonalEdgeStyle;rounded=0;html=1;exitX=0.5;exitY=1;jettySize=auto;orthogonalLoop=1;strokeColor=#000000;strokeWidth=3;fontSize=18;fontColor=#000000;" edge="1" parent="1" source="3" target="5">
                    <mxGeometry relative="1" as="geometry"/>
                </mxCell>
                <mxCell id="3" value="Route" style="rounded=0;whiteSpace=wrap;html=1;strokeWidth=2;fontSize=18;fontColor=#000000;align=center;" vertex="1" parent="1">
                    <mxGeometry x="570" y="253" width="120" height="60" as="geometry"/>
                </mxCell>
                <mxCell id="9" style="edgeStyle=orthogonalEdgeStyle;rounded=0;html=1;exitX=0.5;exitY=1;entryX=0.5;entryY=0;jettySize=auto;orthogonalLoop=1;strokeColor=#000000;strokeWidth=3;fontSize=18;fontColor=#000000;" edge="1" parent="1" source="5" target="7">
                    <mxGeometry relative="1" as="geometry"/>
                </mxCell>
                <mxCell id="5" value="connect" style="rounded=0;whiteSpace=wrap;html=1;strokeWidth=2;fontSize=18;fontColor=#000000;align=center;" vertex="1" parent="1">
                    <mxGeometry x="570" y="345" width="120" height="60" as="geometry"/>
                </mxCell>
                <mxCell id="10" style="edgeStyle=orthogonalEdgeStyle;rounded=0;html=1;exitX=0.5;exitY=1;jettySize=auto;orthogonalLoop=1;strokeColor=#000000;strokeWidth=3;fontSize=18;fontColor=#000000;" edge="1" parent="1" source="7" target="8">
                    <mxGeometry relative="1" as="geometry"/>
                </mxCell>
                <mxCell id="7" value="requireAuth" style="rounded=0;whiteSpace=wrap;html=1;strokeWidth=2;fontSize=18;fontColor=#000000;align=center;" vertex="1" parent="1">
                    <mxGeometry x="570" y="438" width="120" height="60" as="geometry"/>
                </mxCell>
                <mxCell id="8" value="CommentBox" style="rounded=0;whiteSpace=wrap;html=1;strokeWidth=2;fontSize=18;fontColor=#000000;align=center;" vertex="1" parent="1">
                    <mxGeometry x="570" y="530" width="120" height="60" as="geometry"/>
                </mxCell>
                <mxCell id="11" style="edgeStyle=orthogonalEdgeStyle;rounded=0;html=1;exitX=0.75;exitY=0;entryX=0.75;entryY=0;jettySize=auto;orthogonalLoop=1;strokeColor=#000000;strokeWidth=3;fontSize=18;fontColor=#000000;" edge="1" parent="1" source="5" target="5">
                    <mxGeometry relative="1" as="geometry"/>
                </mxCell>
                <mxCell id="12" value="history" style="rounded=0;whiteSpace=wrap;html=1;strokeWidth=2;fontSize=18;fontColor=#000000;align=center;" vertex="1" parent="1">
                    <mxGeometry x="670" y="555" width="110" height="30" as="geometry"/>
                </mxCell>
                <mxCell id="13" value="actions" style="rounded=0;whiteSpace=wrap;html=1;strokeWidth=2;fontSize=18;fontColor=#000000;align=center;" vertex="1" parent="1">
                    <mxGeometry x="670" y="525" width="110" height="30" as="geometry"/>
                </mxCell>
            </root>
        </mxGraphModel>
    </diagram>
</mxfile>